<svg xmlns="http://www.w3.org/2000/svg" viewBox="0 0 1200 600" preserveAspectRatio="xMidYMid slice">
  <g stroke="#aebfe0" stroke-width="0.7" stroke-opacity="0.14">
    <line x1="1019.6" y1="343.3" x2="938.8" y2="256.4"/><line x1="112.6" y1="150.4" x2="125.5" y2="46.4"/><line x1="1130.4" y1="208.5" x2="1177.1" y2="305.3"/><line x1="1036.6" y1="196.2" x2="938.8" y2="256.4"/><line x1="982.1" y1="366.4" x2="1019.6" y2="343.3"/><line x1="339.0" y1="145.0" x2="285.7" y2="38.0"/><line x1="956.3" y1="428.6" x2="997.7" y2="454.6"/><line x1="449.4" y1="137.3" x2="385.9" y2="169.9"/><line x1="642.0" y1="564.9" x2="666.1" y2="403.4"/><line x1="127.6" y1="74.2" x2="125.5" y2="46.4"/><line x1="773.9" y1="325.2" x2="780.3" y2="241.6"/><line x1="273.6" y1="303.0" x2="284.4" y2="182.1"/><line x1="284.4" y1="182.1" x2="327.3" y2="158.1"/><line x1="1130.4" y1="208.5" x2="1036.6" y2="196.2"/><line x1="50.8" y1="131.3" x2="127.6" y2="74.2"/><line x1="757.4" y1="224.3" x2="780.3" y2="241.6"/><line x1="837.3" y1="45.7" x2="757.4" y2="224.3"/><line x1="137.2" y1="175.7" x2="209.5" y2="232.5"/><line x1="509.4" y1="36.7" x2="449.4" y2="137.3"/><line x1="1130.4" y1="208.5" x2="1080.9" y2="277.0"/><line x1="137.2" y1="175.7" x2="93.7" y2="233.7"/><line x1="956.3" y1="428.6" x2="982.1" y2="366.4"/><line x1="874.3" y1="399.0" x2="771.7" y2="361.1"/><line x1="1167.8" y1="378.4" x2="1177.1" y2="305.3"/><line x1="112.6" y1="150.4" x2="137.2" y2="175.7"/><line x1="1003.1" y1="358.1" x2="1019.6" y2="343.3"/><line x1="954.8" y1="411.0" x2="956.3" y2="428.6"/><line x1="771.7" y1="361.1" x2="666.1" y2="403.4"/><line x1="339.0" y1="145.0" x2="284.4" y2="182.1"/><line x1="275.7" y1="350.0" x2="147.2" y2="371.4"/><line x1="339.0" y1="145.0" x2="327.3" y2="158.1"/><line x1="1054.9" y1="68.7" x2="1130.4" y2="208.5"/><line x1="509.4" y1="36.7" x2="414.7" y2="107.1"/><line x1="1080.9" y1="277.0" x2="1177.1" y2="305.3"/><line x1="50.8" y1="131.3" x2="93.7" y2="233.7"/><line x1="982.1" y1="366.4" x2="938.8" y2="256.4"/><line x1="385.9" y1="169.9" x2="327.3" y2="158.1"/><line x1="414.7" y1="107.1" x2="449.4" y2="137.3"/><line x1="1019.6" y1="343.3" x2="1080.9" y2="277.0"/><line x1="1167.8" y1="378.4" x2="1080.9" y2="277.0"/><line x1="414.7" y1="107.1" x2="385.9" y2="169.9"/><line x1="449.4" y1="137.3" x2="483.3" y2="142.8"/><line x1="50.8" y1="131.3" x2="112.6" y2="150.4"/><line x1="284.4" y1="182.1" x2="209.5" y2="232.5"/><line x1="1036.6" y1="196.2" x2="1080.9" y2="277.0"/><line x1="459.1" y1="329.1" x2="385.9" y2="169.9"/><line x1="874.3" y1="399.0" x2="956.3" y2="428.6"/><line x1="982.1" y1="366.4" x2="997.7" y2="454.6"/><line x1="771.7" y1="361.1" x2="780.3" y2="241.6"/><line x1="761.7" y1="34.0" x2="837.3" y2="45.7"/><line x1="218.5" y1="428.3" x2="147.2" y2="371.4"/><line x1="1054.9" y1="68.7" x2="958.9" y2="23.6"/><line x1="1003.1" y1="358.1" x2="982.1" y2="366.4"/><line x1="284.4" y1="182.1" x2="285.7" y2="38.0"/><line x1="50.8" y1="131.3" x2="125.5" y2="46.4"/><line x1="275.7" y1="350.0" x2="459.1" y2="329.1"/><line x1="954.8" y1="411.0" x2="1003.1" y2="358.1"/><line x1="874.3" y1="399.0" x2="954.8" y2="411.0"/><line x1="275.7" y1="350.0" x2="329.7" y2="544.5"/><line x1="275.7" y1="350.0" x2="264.7" y2="548.0"/><line x1="954.8" y1="411.0" x2="997.7" y2="454.6"/><line x1="273.6" y1="303.0" x2="147.2" y2="371.4"/><line x1="761.7" y1="34.0" x2="671.2" y2="167.1"/><line x1="773.9" y1="325.2" x2="771.7" y2="361.1"/><line x1="273.6" y1="303.0" x2="209.5" y2="232.5"/><line x1="275.7" y1="350.0" x2="218.5" y2="428.3"/><line x1="761.7" y1="34.0" x2="757.4" y2="224.3"/><line x1="958.9" y1="23.6" x2="1036.6" y2="196.2"/><line x1="414.7" y1="107.1" x2="483.3" y2="142.8"/><line x1="285.7" y1="38.0" x2="327.3" y2="158.1"/><line x1="339.0" y1="145.0" x2="385.9" y2="169.9"/><line x1="642.0" y1="564.9" x2="698.1" y2="522.8"/><line x1="666.1" y1="403.4" x2="698.1" y2="522.8"/><line x1="954.8" y1="411.0" x2="982.1" y2="366.4"/><line x1="958.9" y1="23.6" x2="837.3" y2="45.7"/><line x1="1019.6" y1="343.3" x2="1167.8" y2="378.4"/><line x1="112.6" y1="150.4" x2="93.7" y2="233.7"/><line x1="509.4" y1="36.7" x2="483.3" y2="142.8"/><line x1="50.8" y1="131.3" x2="137.2" y2="175.7"/><line x1="329.7" y1="544.5" x2="264.7" y2="548.0"/><line x1="773.9" y1="325.2" x2="666.1" y2="403.4"/><line x1="385.9" y1="169.9" x2="483.3" y2="142.8"/><line x1="1054.9" y1="68.7" x2="1036.6" y2="196.2"/><line x1="218.5" y1="428.3" x2="264.7" y2="548.0"/><line x1="127.6" y1="74.2" x2="112.6" y2="150.4"/><line x1="329.7" y1="544.5" x2="218.5" y2="428.3"/><line x1="642.0" y1="564.9" x2="771.7" y2="361.1"/><line x1="773.9" y1="325.2" x2="757.4" y2="224.3"/><line x1="757.4" y1="224.3" x2="671.2" y2="167.1"/><line x1="273.6" y1="303.0" x2="275.7" y2="350.0"/><line x1="273.6" y1="303.0" x2="459.1" y2="329.1"/><line x1="780.3" y1="241.6" x2="671.2" y2="167.1"/><line x1="771.7" y1="361.1" x2="698.1" y2="522.8"/>
  </g>
  <g>
    <circle cx="761.7" cy="34.0" r="3.8" fill="#b6c83a" fill-opacity="0.55"/><circle cx="339.0" cy="145.0" r="2.3" fill="#dCE8ff" fill-opacity="0.5"/><circle cx="874.3" cy="399.0" r="3.1" fill="#dCE8ff" fill-opacity="0.5"/><circle cx="1054.9" cy="68.7" r="2.9" fill="#dCE8ff" fill-opacity="0.5"/><circle cx="509.4" cy="36.7" r="1.3" fill="#dCE8ff" fill-opacity="0.5"/><circle cx="273.6" cy="303.0" r="3.3" fill="#b6c83a" fill-opacity="0.55"/><circle cx="50.8" cy="131.3" r="2.6" fill="#dCE8ff" fill-opacity="0.5"/><circle cx="773.9" cy="325.2" r="2.3" fill="#dCE8ff" fill-opacity="0.5"/><circle cx="275.7" cy="350.0" r="1.8" fill="#dCE8ff" fill-opacity="0.5"/><circle cx="958.9" cy="23.6" r="2.5" fill="#dCE8ff" fill-opacity="0.5"/><circle cx="954.8" cy="411.0" r="2.1" fill="#b6c83a" fill-opacity="0.55"/><circle cx="414.7" cy="107.1" r="2.1" fill="#dCE8ff" fill-opacity="0.5"/><circle cx="1130.4" cy="208.5" r="2.2" fill="#dCE8ff" fill-opacity="0.5"/><circle cx="127.6" cy="74.2" r="3.1" fill="#dCE8ff" fill-opacity="0.5"/><circle cx="1003.1" cy="358.1" r="3.0" fill="#dCE8ff" fill-opacity="0.5"/><circle cx="956.3" cy="428.6" r="2.4" fill="#b6c83a" fill-opacity="0.55"/><circle cx="642.0" cy="564.9" r="2.3" fill="#dCE8ff" fill-opacity="0.5"/><circle cx="459.1" cy="329.1" r="1.6" fill="#dCE8ff" fill-opacity="0.5"/><circle cx="982.1" cy="366.4" r="3.0" fill="#dCE8ff" fill-opacity="0.5"/><circle cx="1019.6" cy="343.3" r="3.0" fill="#dCE8ff" fill-opacity="0.5"/><circle cx="837.3" cy="45.7" r="2.5" fill="#b6c83a" fill-opacity="0.55"/><circle cx="284.4" cy="182.1" r="2.5" fill="#dCE8ff" fill-opacity="0.5"/><circle cx="112.6" cy="150.4" r="2.5" fill="#dCE8ff" fill-opacity="0.5"/><circle cx="137.2" cy="175.7" r="1.6" fill="#dCE8ff" fill-opacity="0.5"/><circle cx="757.4" cy="224.3" r="2.7" fill="#dCE8ff" fill-opacity="0.5"/><circle cx="449.4" cy="137.3" r="2.9" fill="#b6c83a" fill-opacity="0.55"/><circle cx="329.7" cy="544.5" r="2.8" fill="#dCE8ff" fill-opacity="0.5"/><circle cx="771.7" cy="361.1" r="2.3" fill="#dCE8ff" fill-opacity="0.5"/><circle cx="218.5" cy="428.3" r="1.3" fill="#dCE8ff" fill-opacity="0.5"/><circle cx="209.5" cy="232.5" r="1.9" fill="#dCE8ff" fill-opacity="0.5"/><circle cx="1167.8" cy="378.4" r="1.9" fill="#b6c83a" fill-opacity="0.55"/><circle cx="666.1" cy="403.4" r="3.1" fill="#dCE8ff" fill-opacity="0.5"/><circle cx="997.7" cy="454.6" r="3.0" fill="#dCE8ff" fill-opacity="0.5"/><circle cx="285.7" cy="38.0" r="2.9" fill="#dCE8ff" fill-opacity="0.5"/><circle cx="385.9" cy="169.9" r="1.9" fill="#dCE8ff" fill-opacity="0.5"/><circle cx="264.7" cy="548.0" r="2.0" fill="#b6c83a" fill-opacity="0.55"/><circle cx="1036.6" cy="196.2" r="3.0" fill="#dCE8ff" fill-opacity="0.5"/><circle cx="780.3" cy="241.6" r="3.1" fill="#dCE8ff" fill-opacity="0.5"/><circle cx="1080.9" cy="277.0" r="1.5" fill="#dCE8ff" fill-opacity="0.5"/><circle cx="327.3" cy="158.1" r="2.2" fill="#dCE8ff" fill-opacity="0.5"/><circle cx="671.2" cy="167.1" r="2.0" fill="#b6c83a" fill-opacity="0.55"/><circle cx="698.1" cy="522.8" r="2.7" fill="#dCE8ff" fill-opacity="0.5"/><circle cx="483.3" cy="142.8" r="2.8" fill="#dCE8ff" fill-opacity="0.5"/><circle cx="1177.1" cy="305.3" r="1.5" fill="#dCE8ff" fill-opacity="0.5"/><circle cx="125.5" cy="46.4" r="2.2" fill="#dCE8ff" fill-opacity="0.5"/><circle cx="147.2" cy="371.4" r="2.9" fill="#b6c83a" fill-opacity="0.55"/><circle cx="938.8" cy="256.4" r="1.8" fill="#dCE8ff" fill-opacity="0.5"/><circle cx="93.7" cy="233.7" r="3.0" fill="#dCE8ff" fill-opacity="0.5"/>
  </g>
</svg>
